<svg width="25" height="25" viewBox="0 0 25 25" fill="none" xmlns="http://www.w3.org/2000/svg">
<path d="M0.013089 13.1217C0.013089 9.50262 0.013089 5.89005 0.013089 2.27094C0.013089 0.863874 0.870419 0 2.27094 0C9.1034 0 15.9293 0 22.7618 0C24.1361 0 25 0.863874 25 2.24476C25 9.53534 25 16.8259 25 24.1165C25 24.7579 24.7579 25 24.1034 25C23.0694 25 22.0353 25 21.0013 25C20.5366 25 20.3338 24.856 20.1832 24.411C20.0458 24.0118 19.9018 23.606 19.7709 23.2003C19.7186 23.0432 19.6531 22.9843 19.4764 22.9843C18.8613 22.9974 18.2461 22.9843 17.6309 22.9843C13.6126 22.9843 9.59424 22.9843 5.57592 22.9843C5.37304 22.9843 5.27487 23.0366 5.20942 23.2395C5.08508 23.6518 4.93455 24.0641 4.78403 24.4699C4.65314 24.8429 4.43717 24.9935 4.0445 24.9935C2.96466 24.9935 1.87827 24.9935 0.798429 24.9935C0.268325 24.9935 0 24.7251 0 24.1885C0.013089 20.5039 0.013089 16.8128 0.013089 13.1217ZM23.606 17.5393C23.1937 17.6243 22.8076 17.716 22.4149 17.7945C22.2709 17.8207 22.2251 17.8796 22.2317 18.017C22.2382 18.4686 22.2317 18.9202 22.2317 19.3717C22.2317 19.9673 21.9764 20.2225 21.3743 20.2225C15.4647 20.2225 9.54843 20.2225 3.63874 20.2225C3.04319 20.2225 2.78796 19.9738 2.78796 19.3652C2.78796 14.1165 2.78796 8.8678 2.78796 3.61911C2.78796 3.0301 3.03665 2.78141 3.62565 2.78141C9.54843 2.78141 15.4647 2.78141 21.3874 2.78141C21.9764 2.78141 22.2317 3.0301 22.2317 3.61257C22.2317 4.06414 22.2317 4.51571 22.2317 4.96728C22.2317 5.03927 22.284 5.16361 22.3298 5.1767C22.7487 5.28141 23.1675 5.36649 23.606 5.46466C23.606 4.36518 23.606 3.29843 23.606 2.23168C23.606 1.64267 23.3442 1.38089 22.7421 1.38089C15.9097 1.38089 9.08377 1.38089 2.25131 1.38089C1.63613 1.38089 1.38089 1.63613 1.38089 2.24476C1.38089 9.27356 1.38089 16.3024 1.38089 23.3246C1.38089 23.4097 1.38089 23.5013 1.38089 23.606C2.10733 23.606 2.80759 23.606 3.50131 23.5995C3.56021 23.5995 3.64529 23.5079 3.67147 23.4424C3.82853 23.0105 3.97251 22.5785 4.12304 22.1466C4.26047 21.7539 4.47644 21.6034 4.89529 21.6034C9.96073 21.6034 15.0262 21.6034 20.0982 21.6034C20.5039 21.6034 20.7264 21.7605 20.8573 22.1335C21.0079 22.5654 21.1584 22.9974 21.3024 23.4359C21.3416 23.5602 21.4005 23.6191 21.5445 23.6126C21.8259 23.5995 22.1008 23.6126 22.3822 23.6126C22.7814 23.6126 23.1806 23.6126 23.5864 23.6126V17.5393H23.606ZM4.20157 9.39791V13.5929H14.1034V9.39791H4.20157ZM20.8181 18.1348C20.5039 18.2003 20.216 18.2657 19.928 18.3246C19.4437 18.4162 18.966 18.5733 18.4817 18.5864C17.3037 18.6257 16.1191 18.5995 14.9411 18.5995C14.3848 18.5995 14.123 18.3442 14.123 17.7945C14.123 16.9568 14.123 16.1191 14.123 15.288C14.123 15.2029 14.123 15.1113 14.123 15.0262H4.20157V18.8285H20.8181V18.1479V18.1348ZM14.1296 7.97775C14.1296 7.06806 14.1492 6.1911 14.123 5.31414C14.0969 4.60733 14.4895 4.37827 15.0393 4.39136C16.1649 4.41099 17.284 4.39136 18.4097 4.39791C18.5864 4.39791 18.7696 4.42408 18.9463 4.45681C19.5681 4.58115 20.1898 4.71859 20.8312 4.85602V4.18848H4.20157V7.9712H14.1296V7.97775ZM19.3063 17.0288C19.3717 17.0288 19.4175 17.0288 19.4634 17.0157C20.7657 16.7343 22.0681 16.4463 23.377 16.178C23.5864 16.1322 23.6257 16.0471 23.6257 15.8508C23.6257 12.9581 23.6257 10.0654 23.6257 7.17277V6.89791C22.1728 6.58377 20.7461 6.27618 19.3128 5.96859V17.0353L19.3063 17.0288ZM17.8927 5.81152H15.5366V17.1924H17.8927V5.81152Z" fill="white" fill-opacity="0.75"/>
<path d="M20.5813 10.8963C20.4635 10.8963 20.3653 10.8832 20.2671 10.8767C19.8876 10.8505 19.5996 10.556 19.5996 10.1895C19.5996 9.82301 19.881 9.51542 20.2606 9.49579C20.614 9.4827 20.9674 9.47616 21.3143 9.49579C21.6873 9.51542 21.9556 9.79684 21.9556 10.1699C21.9622 11.3217 21.9622 12.4801 21.9556 13.6319C21.9556 14.0377 21.6611 14.3191 21.275 14.3191C20.8823 14.3191 20.5813 14.0311 20.5813 13.6188C20.5747 12.7942 20.5813 11.9631 20.5813 11.1385C20.5813 11.0599 20.5813 10.9814 20.5813 10.8832V10.8963Z" fill="white" fill-opacity="0.75"/>
<path d="M17.2973 15.4062C17.2973 15.7334 17.0224 15.9952 16.7017 15.9887C16.381 15.9821 16.1127 15.7007 16.1193 15.3866C16.1193 15.0594 16.3941 14.8041 16.7279 14.8107C17.0617 14.8107 17.3104 15.0725 17.3038 15.4128L17.2973 15.4062Z" fill="white" fill-opacity="0.75"/>
<path d="M16.7079 10.9082C17.0416 10.9082 17.2969 11.1634 17.2969 11.4972C17.2969 11.8244 17.0285 12.0928 16.7079 12.0928C16.3872 12.0928 16.1123 11.8179 16.1123 11.4972C16.1123 11.1765 16.3806 10.9082 16.7079 10.9082Z" fill="white" fill-opacity="0.75"/>
<path d="M17.297 7.59332C17.297 7.92055 17.0417 8.18887 16.7211 8.19542C16.4004 8.19542 16.1255 7.93364 16.1124 7.61296C16.1059 7.29228 16.3742 7.01741 16.6949 7.01086C17.0221 7.00432 17.2904 7.2661 17.2904 7.59332H17.297Z" fill="white" fill-opacity="0.75"/>
</svg>
