<svg width="35" height="35" viewBox="0 0 35 35" fill="none" xmlns="http://www.w3.org/2000/svg">
<path d="M22.4135 35H19.6792C19.2135 34.7938 19.0604 34.4145 19.0738 33.9289C19.0871 33.3035 19.0871 32.6782 19.0738 32.0528C19.0738 31.6802 19.1869 31.3742 19.4596 31.1081C20.065 30.5226 20.6505 29.9172 21.2492 29.3251C21.4555 29.1189 21.6684 28.9259 21.8746 28.7263L21.828 28.6465C21.7216 28.6465 21.6085 28.6465 21.502 28.6465C20.1914 28.6465 18.8808 28.6465 17.5702 28.6465C16.7053 28.6465 15.9403 28.3737 15.3149 27.7484C15.2484 27.6818 15.1619 27.622 15.0754 27.5488C14.4101 28.2806 13.6051 28.6465 12.6404 28.6465C9.52025 28.6465 6.40005 28.6598 3.27986 28.6332C2.7809 28.6332 2.24867 28.5135 1.80293 28.3006C0.572146 27.7085 0 26.6573 0 25.3001C0 21.6544 0 18.0086 0 14.3628C0 10.6838 0 7.00475 0 3.32572C0 1.42966 1.34388 0.0259022 3.21333 0.0125965C6.40005 -0.00736212 9.59343 -0.000709255 12.7801 0.0125965C13.5718 0.0125965 14.2704 0.29867 14.8425 0.85751C14.929 0.943997 15.0222 1.01718 15.122 1.10367C15.7806 0.385157 16.559 0.0125965 17.497 0.00594361C20.6505 0.00594361 23.8039 0.00594361 26.964 0.00594361C27.6892 0.00594361 28.3545 0.205529 28.9399 0.651271C29.8381 1.34317 30.2173 2.26792 30.2173 3.3856C30.2173 8.5083 30.2173 13.6377 30.2106 18.7604C30.2106 19.0597 30.2705 19.1795 30.5899 19.2527C32.4726 19.6785 33.8098 20.7895 34.5683 22.5658C34.7679 23.0382 34.8543 23.5637 34.9941 24.0627V25.2935C34.9674 25.3667 34.9342 25.4398 34.9275 25.513C34.4352 28.7862 31.142 30.9151 27.9487 30.0104C27.7291 29.9505 27.6027 29.9904 27.4497 30.1501C25.9794 31.627 24.5091 33.1039 23.0256 34.5676C22.8526 34.7405 22.6264 34.8536 22.4268 35H22.4135ZM14.317 14.3162C14.317 10.6705 14.317 7.02471 14.317 3.3856C14.317 2.25461 13.6849 1.59598 12.5806 1.59598C9.49363 1.59598 6.40671 1.59598 3.31978 1.59598C2.24867 1.59598 1.59003 2.25461 1.59003 3.32572C1.59003 10.6572 1.59003 17.9953 1.59003 25.3267C1.59003 26.3646 2.22871 27.0365 3.2599 27.0432C6.3934 27.0565 9.52025 27.0498 12.6537 27.0432C13.2325 27.0432 13.7581 26.8369 14.0309 26.3114C14.2039 25.9721 14.297 25.5596 14.297 25.1737C14.317 21.5546 14.3103 17.9288 14.3103 14.3096L14.317 14.3162ZM15.9136 14.2963C15.9136 17.9288 15.9136 21.5612 15.9136 25.1937C15.9136 25.4066 15.9136 25.6328 15.9669 25.839C16.1598 26.6107 16.7852 27.0432 17.69 27.0498C19.433 27.0498 21.1761 27.0365 22.9191 27.0631C23.3715 27.0698 23.7041 26.9633 23.9836 26.6107C24.1033 26.4577 24.1366 26.3446 24.0834 26.1583C23.2185 23.0648 25.1146 19.9246 28.2813 19.2527C28.594 19.1861 28.6472 19.0664 28.6406 18.787C28.6339 13.6842 28.6406 8.58148 28.6406 3.47874C28.6406 2.20804 28.0285 1.58932 26.7578 1.58932C23.7773 1.58932 20.7902 1.60928 17.8097 1.57602C16.6322 1.56271 15.9003 2.28788 15.9136 3.46543C15.9469 7.07794 15.927 10.6838 15.927 14.2963H15.9136ZM20.6837 33.4166C20.9698 33.4166 21.2226 33.3967 21.4621 33.4166C21.7948 33.4499 22.0276 33.3235 22.2605 33.084C23.7308 31.5937 25.2277 30.1235 26.6913 28.6332C27.0905 28.2274 27.483 28.1276 28.0019 28.3538C28.7004 28.6532 29.4323 28.6997 30.1774 28.56C32.3861 28.1476 33.8165 25.8989 33.271 23.6901C32.7254 21.4814 30.3903 20.1708 28.2148 20.8627C26.0526 21.5479 24.875 23.9496 25.7067 26.0452C25.9195 26.5908 25.8464 26.9766 25.4272 27.3891C23.8971 28.886 22.3935 30.4095 20.8833 31.9264C20.7968 32.0129 20.6837 32.1193 20.6771 32.2258C20.6505 32.605 20.6704 32.9908 20.6704 33.4166H20.6837Z" fill="#080E1E"/>
<path d="M7.94998 9.55292C7.22481 9.55292 6.493 9.56623 5.76784 9.54627C5.54164 9.53962 5.28883 9.47309 5.0959 9.35999C4.81648 9.19367 4.73664 8.89429 4.80983 8.58161C4.88301 8.28223 5.06929 8.07599 5.37532 8.00946C5.52833 7.9762 5.688 7.96289 5.84767 7.96289C7.24477 7.96289 8.64853 7.96289 10.0456 7.96289C10.7508 7.96289 11.1367 8.25562 11.13 8.76789C11.1234 9.28016 10.7375 9.55958 10.0323 9.55958C9.34042 9.55958 8.64187 9.55958 7.94998 9.55958V9.55292Z" fill="#080E1E"/>
<path d="M7.94313 4.78302C8.6949 4.78302 9.44668 4.78302 10.1984 4.78302C10.7639 4.78302 11.1232 5.08905 11.1298 5.5614C11.1365 6.04041 10.7639 6.35975 10.1785 6.35975C8.70156 6.35975 7.21797 6.35975 5.74103 6.35975C5.14227 6.35975 4.78302 6.06702 4.77637 5.57471C4.77637 5.07575 5.12897 4.77637 5.75434 4.77637C6.4795 4.77637 7.21131 4.77637 7.93648 4.77637L7.94313 4.78302Z" fill="#080E1E"/>
<path d="M12.7203 15.1151C12.7203 15.6074 12.7203 16.0931 12.7203 16.5854C12.7203 17.1442 12.3943 17.5035 11.9219 17.4968C11.4629 17.4902 11.1436 17.1376 11.1436 16.5987C11.1436 15.6074 11.1436 14.6162 11.1436 13.6315C11.1436 13.0993 11.4695 12.7401 11.9286 12.7334C12.3876 12.7334 12.7136 13.086 12.7269 13.6182C12.7336 14.1172 12.7269 14.6228 12.7269 15.1218L12.7203 15.1151Z" fill="#080E1E"/>
<path d="M22.2671 7.95685C23.0189 7.95685 23.7707 7.9502 24.5224 7.95685C25.0879 7.9635 25.4339 8.28284 25.4339 8.75519C25.4339 9.12775 25.1877 9.43378 24.8218 9.50697C24.7021 9.53358 24.5757 9.54688 24.4493 9.54688C22.9923 9.54688 21.5353 9.55354 20.0783 9.54688C19.8721 9.54688 19.6459 9.49366 19.4596 9.40052C19.1602 9.24085 19.0538 8.95478 19.1137 8.61548C19.1735 8.27619 19.3731 8.06329 19.7058 7.99677C19.8854 7.9635 20.065 7.95685 20.2447 7.9502C20.9166 7.9502 21.5885 7.9502 22.2605 7.9502L22.2671 7.95685Z" fill="#080E1E"/>
<path d="M22.2467 6.3659C21.475 6.3659 20.6966 6.37255 19.9249 6.3659C19.4924 6.3659 19.213 6.12639 19.1265 5.76049C19.0467 5.40789 19.1864 5.04863 19.5057 4.89562C19.6521 4.82243 19.8317 4.78917 19.998 4.78917C21.5082 4.78252 23.0251 4.78252 24.5353 4.78917C25.0808 4.78917 25.4201 5.0952 25.4334 5.56755C25.4401 6.05321 25.0941 6.3659 24.5353 6.37255C23.7702 6.37255 23.0118 6.37255 22.2467 6.37255V6.3659Z" fill="#080E1E"/>
<path d="M25.4473 15.0947C25.4473 14.6024 25.434 14.1167 25.4473 13.6244C25.4739 12.9791 25.9396 12.5865 26.4719 12.7994C26.6848 12.8859 26.8444 13.1254 26.9908 13.325C27.0573 13.4115 27.044 13.5645 27.044 13.6909C27.044 14.6489 27.0573 15.6003 27.044 16.5583C27.0374 17.2502 26.5317 17.656 25.9662 17.4365C25.5671 17.2835 25.454 16.9508 25.4473 16.5583C25.4473 16.066 25.4473 15.5803 25.4473 15.088V15.0947Z" fill="#080E1E"/>
<path d="M30.2305 25.4472C29.3523 25.4472 28.6404 24.7487 28.6338 23.8771C28.6338 22.999 29.3323 22.2871 30.2105 22.2871C31.0887 22.2871 31.7939 22.979 31.8006 23.8638C31.8006 24.742 31.1087 25.4472 30.2305 25.4539V25.4472Z" fill="#080E1E"/>
</svg>
