<svg width="35" height="35" viewBox="0 0 35 35" fill="none" xmlns="http://www.w3.org/2000/svg">
<path d="M0.0183246 18.3704C0.0183246 13.3037 0.0183246 8.24607 0.0183246 3.17932C0.0183246 1.20942 1.21859 0 3.17932 0C12.7448 0 22.301 0 31.8665 0C33.7906 0 35 1.20942 35 3.14267C35 13.3495 35 23.5563 35 33.7631C35 34.661 34.661 35 33.7448 35C32.2971 35 30.8495 35 29.4018 35C28.7513 35 28.4673 34.7984 28.2565 34.1754C28.0641 33.6165 27.8626 33.0484 27.6793 32.4804C27.606 32.2605 27.5144 32.178 27.267 32.178C26.4058 32.1963 25.5445 32.178 24.6832 32.178C19.0576 32.178 13.4319 32.178 7.80628 32.178C7.52225 32.178 7.38482 32.2513 7.29319 32.5353C7.11911 33.1126 6.90838 33.6898 6.69764 34.2579C6.5144 34.7801 6.21204 34.9908 5.6623 34.9908C4.15052 34.9908 2.62958 34.9908 1.1178 34.9908C0.375654 34.9908 0 34.6152 0 33.8639C0.0183246 28.7055 0.0183246 23.538 0.0183246 18.3704ZM33.0484 24.555C32.4712 24.6741 31.9306 24.8024 31.3809 24.9123C31.1793 24.949 31.1152 25.0314 31.1243 25.2238C31.1335 25.856 31.1243 26.4882 31.1243 27.1204C31.1243 27.9542 30.767 28.3115 29.9241 28.3115C21.6505 28.3115 13.3678 28.3115 5.09424 28.3115C4.26047 28.3115 3.90314 27.9634 3.90314 27.1113C3.90314 19.7631 3.90314 12.4149 3.90314 5.06675C3.90314 4.24215 4.25131 3.89398 5.07592 3.89398C13.3678 3.89398 21.6505 3.89398 29.9424 3.89398C30.767 3.89398 31.1243 4.24215 31.1243 5.05759C31.1243 5.68979 31.1243 6.32199 31.1243 6.95419C31.1243 7.05497 31.1976 7.22906 31.2618 7.24738C31.8482 7.39398 32.4346 7.51309 33.0484 7.65052C33.0484 6.11126 33.0484 4.6178 33.0484 3.12435C33.0484 2.29974 32.6819 1.93325 31.839 1.93325C22.2736 1.93325 12.7173 1.93325 3.15183 1.93325C2.29058 1.93325 1.93325 2.29058 1.93325 3.14267C1.93325 12.983 1.93325 22.8233 1.93325 32.6544C1.93325 32.7736 1.93325 32.9018 1.93325 33.0484C2.95026 33.0484 3.93063 33.0484 4.90183 33.0393C4.98429 33.0393 5.1034 32.911 5.14005 32.8194C5.35995 32.2147 5.56152 31.6099 5.77225 31.0052C5.96466 30.4555 6.26702 30.2448 6.8534 30.2448C13.945 30.2448 21.0366 30.2448 28.1374 30.2448C28.7055 30.2448 29.017 30.4647 29.2003 30.9869C29.411 31.5916 29.6217 32.1963 29.8233 32.8102C29.8783 32.9843 29.9607 33.0668 30.1623 33.0576C30.5563 33.0393 30.9411 33.0576 31.3351 33.0576C31.894 33.0576 32.4529 33.0576 33.0209 33.0576V24.555H33.0484ZM5.8822 13.1571V19.0301H19.7448V13.1571H5.8822ZM29.1453 25.3887C28.7055 25.4804 28.3024 25.572 27.8992 25.6544C27.2212 25.7827 26.5524 26.0026 25.8743 26.0209C24.2251 26.0759 22.5668 26.0393 20.9175 26.0393C20.1387 26.0393 19.7723 25.6819 19.7723 24.9123C19.7723 23.7395 19.7723 22.5668 19.7723 21.4031C19.7723 21.284 19.7723 21.1558 19.7723 21.0366H5.8822V26.3599H29.1453V25.4071V25.3887ZM19.7814 11.1688C19.7814 9.89529 19.8089 8.66754 19.7723 7.43979C19.7356 6.45026 20.2853 6.12958 21.055 6.14791C22.6309 6.17539 24.1976 6.14791 25.7736 6.15707C26.0209 6.15707 26.2775 6.19372 26.5249 6.23953C27.3953 6.41361 28.2657 6.60602 29.1636 6.79843V5.86387H5.8822V11.1597H19.7814V11.1688ZM27.0288 23.8403C27.1204 23.8403 27.1846 23.8403 27.2487 23.822C29.072 23.428 30.8953 23.0249 32.7277 22.6492C33.0209 22.5851 33.0759 22.466 33.0759 22.1911C33.0759 18.1414 33.0759 14.0916 33.0759 10.0419V9.65707C31.0419 9.21728 29.0445 8.78665 27.038 8.35602V23.8495L27.0288 23.8403ZM25.0497 8.13613H21.7513V24.0694H25.0497V8.13613Z" fill="#080E1E"/>
<path d="M28.8148 15.2554C28.6499 15.2554 28.5124 15.2371 28.375 15.2279C27.8436 15.1913 27.4404 14.779 27.4404 14.2659C27.4404 13.7528 27.8344 13.3222 28.3658 13.2947C28.8606 13.2764 29.3554 13.2672 29.841 13.2947C30.3632 13.3222 30.7389 13.7162 30.7389 14.2384C30.748 15.851 30.748 17.4727 30.7389 19.0853C30.7389 19.6533 30.3266 20.0473 29.786 20.0473C29.2362 20.0473 28.8148 19.6442 28.8148 19.0669C28.8056 17.9125 28.8148 16.7489 28.8148 15.5944C28.8148 15.4845 28.8148 15.3745 28.8148 15.2371V15.2554Z" fill="#080E1E"/>
<path d="M24.2158 21.5683C24.2158 22.0264 23.831 22.3929 23.382 22.3838C22.9331 22.3746 22.5574 21.9806 22.5666 21.5408C22.5666 21.0827 22.9514 20.7254 23.4187 20.7345C23.8859 20.7345 24.2341 21.101 24.2249 21.5775L24.2158 21.5683Z" fill="#080E1E"/>
<path d="M23.3904 15.2734C23.8577 15.2734 24.215 15.6308 24.215 16.098C24.215 16.5562 23.8394 16.9318 23.3904 16.9318C22.9415 16.9318 22.5566 16.547 22.5566 16.098C22.5566 15.6491 22.9323 15.2734 23.3904 15.2734Z" fill="#080E1E"/>
<path d="M24.2152 10.6281C24.2152 11.0862 23.8579 11.4619 23.4089 11.471C22.9599 11.471 22.5751 11.1046 22.5568 10.6556C22.5476 10.2066 22.9233 9.82183 23.3722 9.81267C23.8304 9.80351 24.206 10.17 24.206 10.6281H24.2152Z" fill="#080E1E"/>
</svg>
