<svg width="20" height="20" viewBox="0 0 20 20" fill="none" xmlns="http://www.w3.org/2000/svg">
<path fill-rule="evenodd" clip-rule="evenodd" d="M11.4286 0C11.9546 0 12.381 0.426395 12.381 0.952381V4.7619C12.381 5.28789 11.9546 5.71429 11.4286 5.71429C10.9026 5.71429 10.4762 5.28789 10.4762 4.7619V3.80952H0.952381C0.426395 3.80952 0 3.38313 0 2.85714C0 2.33116 0.426395 1.90476 0.952381 1.90476H10.4762V0.952381C10.4762 0.426395 10.9026 0 11.4286 0ZM14.2857 2.85714C14.2857 2.33116 14.7121 1.90476 15.2381 1.90476H18.0952C18.6212 1.90476 19.0476 2.33116 19.0476 2.85714C19.0476 3.38313 18.6212 3.80952 18.0952 3.80952H15.2381C14.7121 3.80952 14.2857 3.38313 14.2857 2.85714ZM8.57143 6.66667C9.09741 6.66667 9.52381 7.09306 9.52381 7.61905V8.57143H19.0476C19.5736 8.57143 20 8.99782 20 9.52381C20 10.0498 19.5736 10.4762 19.0476 10.4762H9.52381V11.4286C9.52381 11.9546 9.09741 12.381 8.57143 12.381C8.04544 12.381 7.61905 11.9546 7.61905 11.4286V7.61905C7.61905 7.09306 8.04544 6.66667 8.57143 6.66667ZM0 9.52381C0 8.99782 0.426395 8.57143 0.952381 8.57143H4.7619C5.28789 8.57143 5.71429 8.99782 5.71429 9.52381C5.71429 10.0498 5.28789 10.4762 4.7619 10.4762H0.952381C0.426395 10.4762 0 10.0498 0 9.52381ZM11.4286 13.3333C11.9546 13.3333 12.381 13.7597 12.381 14.2857V18.0952C12.381 18.6212 11.9546 19.0476 11.4286 19.0476C10.9026 19.0476 10.4762 18.6212 10.4762 18.0952V17.1429H0.952381C0.426395 17.1429 0 16.7165 0 16.1905C0 15.6645 0.426395 15.2381 0.952381 15.2381H10.4762V14.2857C10.4762 13.7597 10.9026 13.3333 11.4286 13.3333ZM14.2857 16.1905C14.2857 15.6645 14.7121 15.2381 15.2381 15.2381H18.0952C18.6212 15.2381 19.0476 15.6645 19.0476 16.1905C19.0476 16.7165 18.6212 17.1429 18.0952 17.1429H15.2381C14.7121 17.1429 14.2857 16.7165 14.2857 16.1905Z" fill="#080E1E"/>
</svg>
