<svg width="25" height="25" viewBox="0 0 25 25" fill="none" xmlns="http://www.w3.org/2000/svg">
<path d="M23.731 24.9996C23.4772 24.8092 23.1916 24.6506 22.9696 24.4285C22.1447 23.6353 21.3198 22.8105 20.495 21.9539C19.0038 22.8739 17.4493 23.1595 15.7678 22.6201C14.4671 22.2077 13.4836 21.4145 12.7539 20.2724C11.3579 18.0199 11.8021 15.1011 13.7691 13.3245C15.7361 11.5478 18.7183 11.4526 20.7805 13.1024C22.9061 14.7521 23.6041 17.893 21.8909 20.5262C21.9543 20.5579 22.0495 20.5897 22.113 20.6531C22.8744 21.4145 23.6358 22.1442 24.3655 22.9057C24.5876 23.1277 24.7462 23.4133 24.9366 23.6671V24.1112C24.8097 24.5237 24.5241 24.8092 24.1117 24.9361H23.6675L23.731 24.9996ZM14.0864 17.4488C14.0864 19.3206 15.6092 20.8435 17.481 20.8435C19.3528 20.8435 20.8757 19.2889 20.8757 17.4488C20.8757 15.577 19.3528 14.0542 17.481 14.0542C15.6092 14.0542 14.0864 15.577 14.0864 17.4488Z" fill="white" fill-opacity="0.75"/>
<path d="M17.703 9.89844C11.5165 9.70809 7.64591 16.6878 11.3261 21.8908C11.2309 21.8908 11.1675 21.8908 11.104 21.8908C8.3756 21.8908 5.64719 21.8908 2.88705 21.8908C1.26903 21.8908 0 20.6217 0 19.0037C0 13.6421 0 8.28043 0 2.91877C0 1.26903 1.26903 0 2.88705 0C6.85277 0 10.8185 0 14.8159 0C16.4022 0 17.6713 1.20558 17.703 2.79187C17.7347 5.13958 17.703 7.45556 17.703 9.80326C17.703 9.80326 17.703 9.83499 17.703 9.89844ZM8.85149 10.4061C8.85149 10.4061 9.07357 10.4061 9.20047 10.4061C10.6599 10.4061 12.1192 10.4061 13.5786 10.4061C14.1497 10.4061 14.5939 9.93017 14.5939 9.3591C14.5939 8.81976 14.1497 8.34388 13.6104 8.34388C10.4378 8.34388 7.2652 8.34388 4.09262 8.34388C3.55329 8.34388 3.14085 8.81976 3.14085 9.3591C3.14085 9.96189 3.58501 10.4061 4.21953 10.4061C5.77409 10.4061 7.32865 10.4061 8.85149 10.4061ZM6.75759 14.5939C7.58246 14.5939 8.40733 14.5939 9.2322 14.5939C9.32738 14.5939 9.45428 14.5939 9.54946 14.5939C10.0888 14.4987 10.4695 14.0545 10.4061 13.4835C10.3743 12.9758 9.93017 12.5317 9.39083 12.5317C7.64591 12.5317 5.86927 12.5317 4.12435 12.5317C3.68019 12.5317 3.29948 12.8489 3.17258 13.2614C2.9505 13.9593 3.45811 14.5939 4.21953 14.6256C5.07612 14.6256 5.90099 14.6256 6.75759 14.6256V14.5939ZM6.24998 6.24998C6.91622 6.24998 7.61419 6.24998 8.28043 6.24998C8.91494 6.24998 9.39083 5.80582 9.39083 5.23475C9.39083 4.63196 8.94667 4.1878 8.31215 4.1878C6.94794 4.1878 5.58374 4.1878 4.21953 4.1878C3.58501 4.1878 3.14085 4.66369 3.14085 5.23475C3.14085 5.83754 3.61674 6.24998 4.25125 6.24998C4.9175 6.24998 5.61546 6.24998 6.2817 6.24998H6.24998Z" fill="white" fill-opacity="0.75"/>
</svg>
