<svg width="35" height="33" viewBox="0 0 35 33" fill="none" xmlns="http://www.w3.org/2000/svg">
<path d="M34.9977 7.89413C34.9123 8.2921 34.8449 8.69681 34.7369 9.08803C33.8803 12.2111 31.09 14.3695 27.8636 14.3875C25.1745 14.4032 22.4854 14.392 19.7963 14.392C19.7289 14.392 19.6614 14.392 19.5423 14.392C19.5423 14.2549 19.5423 14.1357 19.5423 14.0165C19.5423 12.238 19.5535 10.4618 19.5378 8.68332C19.5175 6.55409 17.9549 4.67217 15.8953 4.26971C13.7369 3.84701 11.6009 4.92624 10.778 6.92732C10.5464 7.49167 10.416 8.13471 10.398 8.74628C10.3485 10.4888 10.38 12.2313 10.38 13.9761C10.38 14.0997 10.38 14.2234 10.38 14.3313C10.3373 14.3583 10.3193 14.3808 10.3013 14.3808C8.94779 14.365 7.58301 14.4392 6.24072 14.3088C3.25035 14.0188 0.669182 11.55 0.127318 8.59338C-0.63489 4.4316 2.10141 0.634049 6.29468 0.0539616C6.63194 0.0067452 6.97594 0.0022484 7.3177 0.0022484C14.0966 0 20.8778 0 27.6567 0C31.443 0 34.3772 2.54069 34.9393 6.30002C34.9505 6.37646 34.9798 6.45066 35 6.52486V7.89188L34.9977 7.89413ZM24.9969 8.11672C24.5787 7.69402 24.174 7.28032 23.7647 6.87336C23.2926 6.40344 22.6675 6.37197 22.2448 6.78567C21.8086 7.21062 21.8379 7.83792 22.3235 8.32807C22.9418 8.95088 23.5624 9.57144 24.1829 10.1897C24.7248 10.7271 25.2914 10.7339 25.8265 10.201C27.1418 8.89017 28.4549 7.57711 29.7657 6.26179C30.2401 5.78513 30.2626 5.16907 29.8354 4.74188C29.4172 4.32367 28.7832 4.35065 28.3155 4.81607C27.306 5.82111 26.3009 6.82839 25.2937 7.83567C25.206 7.92336 25.116 8.00655 24.9991 8.11672H24.9969Z" fill="#080E1E"/>
<path d="M17.4938 16.5912C18.3482 16.6789 19.1756 16.7644 20.0007 16.8521C21.4262 17.0049 22.8585 17.1196 24.2772 17.3265C25.6667 17.5288 26.7504 18.7317 26.7752 20.1347C26.8179 22.6394 26.7887 25.1464 26.7887 27.6534C26.7887 27.6736 26.7752 27.6961 26.7504 27.759C26.6448 27.759 26.5211 27.759 26.3997 27.759C21.6713 27.759 16.9429 27.7613 12.2145 27.7501C12.0099 27.7501 11.7671 27.6601 11.6075 27.5297C10.0066 26.2144 8.41474 24.8856 6.82737 23.55C6.05167 22.898 5.75938 22.0549 6.0022 21.0701C6.24278 20.0965 6.89032 19.4939 7.86388 19.2803C8.6733 19.105 9.39054 19.341 10.0201 19.8762C10.7148 20.4675 11.4163 21.0476 12.1178 21.6299C12.201 21.6996 12.291 21.7648 12.4326 21.8727C12.4326 21.6929 12.4326 21.5737 12.4326 21.4545C12.4326 17.2388 12.4326 13.023 12.4326 8.80728C12.4326 7.61788 13.1634 6.63533 14.2561 6.3228C15.8929 5.85738 17.478 7.05353 17.487 8.78255C17.4983 11.2311 17.4893 13.6818 17.4915 16.1303C17.4915 16.2675 17.4915 16.4024 17.4915 16.589L17.4938 16.5912Z" fill="#080E1E"/>
<path d="M26.7872 29.8389C26.7872 30.5606 26.8075 31.2554 26.7805 31.9479C26.7625 32.429 26.3893 32.7933 25.9126 32.863C25.7777 32.8832 25.6406 32.8877 25.5034 32.8877C21.5732 32.8877 17.6453 32.8877 13.715 32.8899C13.3418 32.8899 12.9663 32.8675 12.7213 32.5504C12.5886 32.3796 12.4604 32.1525 12.4492 31.9456C12.4155 31.2531 12.4357 30.5606 12.4357 29.8389H26.785H26.7872Z" fill="#080E1E"/>
</svg>
